# xmcd
#
# Track frame offsets: 
#        150
#        13122
#        24644
#        36090
#        58771
#        70881
#        88747
#        102574
#        115680
#        131991
#        145382
#        154846
#
# Disc length: 2221 seconds
#
# Revision: 0
# Processed by: cddbd v1.5.2PL0 Copyright (c) Steve Scherf et al.
# Submitted via: ExactAudioCopy v0.99pb5
#
DISCID=ad08ab0c
DTITLE=High Hills - Coming Home
DYEAR=1999
DGENRE=Bluegrass
TTITLE0=Grandma's Farm
TTITLE1=Sleepy-Eyed John
TTITLE2=I'm Leavin' Now
TTITLE3=Who Will Watch The Home Place?
TTITLE4=Gypsy Hoedown
TTITLE5=Point Me In The right Direction
TTITLE6=Lift All My Burdens
TTITLE7=Ain't Gonna Take Your Lies No More
TTITLE8=Waltz With Me Darlin'
TTITLE9=Alabama Jubilee
TTITLE10=High Hills
TTITLE11=I Want To Be A Cowboy's Sweetheart
EXTD=
EXTT0=
EXTT1=
EXTT2=
EXTT3=
EXTT4=
EXTT5=
EXTT6=
EXTT7=
EXTT8=
EXTT9=
EXTT10=
EXTT11=
PLAYORDER=
